<svg xmlns="http://www.w3.org/2000/svg" xmlns:xlink="http://www.w3.org/1999/xlink" width="1000" height="1000" viewBox="0 0 1000 1000">
  <defs>
    <style>
      .a {
        fill: none;
      }

      .b {
        clip-path: url(#a);
      }

      .c, .f {
        fill: #fff;
      }

      .d, .e {
        fill: #f48622;
      }

      .d {
        opacity: 0.51;
      }

      .f {
        opacity: 0.01;
      }
    </style>
    <clipPath id="a">
      <path class="a" d="M926,212.84c-25.22-5.43-40,37-79.18,63.19C802.3,305.89,657,381.6,619.8,478.05c-45.22,117.17,2.56,129.82-16.87,272.72-8.67,63.75-34.89,113.44-19.68,118.09,10.56,3.23,33-27.7,52.73-47.38,31.35-31.35,141.56-141.63,183.44-219.72C892.29,465.89,945.26,217,926,212.84ZM498.66,533.36C420.22,411.9,250.34,304,205.35,244.94c-27-35.5-45-101.22-66.33-81.79C124,176.86,42.39,542,172.76,733.9,253.15,852.24,444.34,945,431,926.46c-14.25-19.87-69.64-44.39-130.07-119.2-59-73.1-95.6-179.94-92.89-190.18,5-18.79,2.92,77.71,160.26,222.11,49.33,45.28,137.87,97.4,165.9,104.85,13.79,3.67-2.72-24.32-2.72-60.87C531.5,815.46,585.82,668.32,498.66,533.36Z"/>
    </clipPath>
  </defs>
  <g class="b">
    <g>
      <circle class="c" cx="515" cy="862.52" r="1225.05"/>
      <circle class="d" cx="515" cy="862.52" r="1225.05"/>
      <circle class="d" cx="515" cy="862.52" r="501.09"/>
      <circle class="e" cx="515" cy="862.52" r="201.47"/>
    </g>
  </g>
  <rect class="f" width="1" height="1"/>
  <rect class="f" x="999" y="999" width="1" height="1"/>
</svg>
