<svg xmlns="http://www.w3.org/2000/svg" width="1010" height="170" viewBox="0 0 1010 170">
  <defs>
    <style>
      .a {
        fill: #f48622;
      }
    </style>
  </defs>
  <g>
    <path class="a" d="M71.62,161.92q-5.91,0-8.69-6.1a13.21,13.21,0,0,1-3-4.61c-10.65-32.06-33-48.58-42.41-71C4,48,4.26,13.94,5.62,11.22S7,7.16,10.79,7.16c4.31,0,26.17,15.92,36.46,43,9.56,25.2,12.54,52.1,21.43,77,.81,2.25,3.68,10.13,3.68,10.13h-2s3-8.07,3.84-10.39c9-24.66,12.13-50.63,22.19-76.76,10.66-27.66,34.06-43,36.28-43,3.7,0,3.66,1.32,5.08,4S141.58,48,126.09,79c-11.74,23.51-32.65,41.46-42.81,72.22a13.1,13.1,0,0,1-3,4.61C79.45,157.79,76.77,161.91,71.62,161.92Z"/>
    <path class="a" d="M195.82,162.53q-15,0-26.43-6.56a47.59,47.59,0,0,1-18-18.11q-6.56-11.55-6.56-26.53,0-15.15,6.56-26.71a47.69,47.69,0,0,1,18-18.12q11.46-6.55,26.43-6.56a51.93,51.93,0,0,1,26.25,6.56,47.69,47.69,0,0,1,18,18.12q6.56,11.55,6.56,26.71,0,15-6.47,26.53A46.92,46.92,0,0,1,222.26,156Q210.8,162.54,195.82,162.53Zm0-16.63a32.4,32.4,0,0,0,17-4.44,31,31,0,0,0,11.55-12.2,37.31,37.31,0,0,0,4.16-17.93,37.82,37.82,0,0,0-4.16-18A30.85,30.85,0,0,0,212.83,81a34.85,34.85,0,0,0-34,0,31.51,31.51,0,0,0-11.65,12.3,37.16,37.16,0,0,0-4.25,18,36.67,36.67,0,0,0,4.25,17.93,31.65,31.65,0,0,0,11.65,12.2A32.34,32.34,0,0,0,195.82,145.9Z"/>
    <path class="a" d="M284.73,44.23a11.73,11.73,0,0,1-8.59-3.61,12,12,0,0,1,0-17.19,12.06,12.06,0,0,1,17.19,0,12.06,12.06,0,0,1,0,17.19A11.77,11.77,0,0,1,284.73,44.23Zm0,117.56a9.16,9.16,0,0,1-9.43-9.42V70.11A9.08,9.08,0,0,1,278,63.27a10.21,10.21,0,0,1,13.59,0,9.21,9.21,0,0,1,2.59,6.84v82.26a9.28,9.28,0,0,1-2.59,6.74A9.06,9.06,0,0,1,284.73,161.79Z"/>
    <path class="a" d="M375.12,162.53a51.22,51.22,0,0,1-26.34-6.74,48.71,48.71,0,0,1-18.11-18.3,52,52,0,0,1-6.57-26.16,53.92,53.92,0,0,1,6.47-26.62A47.22,47.22,0,0,1,348.32,66.5a50.54,50.54,0,0,1,25.88-6.56,47.38,47.38,0,0,1,20,4.16,47.93,47.93,0,0,1,16.26,12.48,6.65,6.65,0,0,1,1.85,6.1,9.63,9.63,0,0,1-4.07,5.54,7,7,0,0,1-5.73,1.2,11.25,11.25,0,0,1-5.73-3.23,29.72,29.72,0,0,0-22.55-9.61,31.69,31.69,0,0,0-16.64,4.34A30.16,30.16,0,0,0,346.29,93a38.78,38.78,0,0,0-4.07,18.3,37.07,37.07,0,0,0,4.16,17.75,31.69,31.69,0,0,0,11.55,12.29,32.24,32.24,0,0,0,17.19,4.53,37.46,37.46,0,0,0,11.37-1.57,27.13,27.13,0,0,0,9-4.9,11.17,11.17,0,0,1,6.1-2.68,7.27,7.27,0,0,1,5.54,1.75,8.87,8.87,0,0,1,3.52,5.83,6.89,6.89,0,0,1-2.22,5.82Q395.1,162.54,375.12,162.53Z"/>
    <path class="a" d="M487.89,162.53q-15.36,0-27.27-6.56A48,48,0,0,1,442,137.86q-6.75-11.55-6.75-26.53,0-15.15,6.38-26.71A46.72,46.72,0,0,1,459.23,66.5a50.57,50.57,0,0,1,25.88-6.56q14.43,0,24.77,6.38a41.57,41.57,0,0,1,15.81,17.56q5.44,11.19,5.45,25.79a7.74,7.74,0,0,1-2.4,5.82,8.45,8.45,0,0,1-6.1,2.31h-74.5V103h73.94l-7.57,5.18a39.73,39.73,0,0,0-3.7-16.55,28.09,28.09,0,0,0-10-11.55q-6.48-4.26-15.72-4.25-10.53,0-18,4.62a29.79,29.79,0,0,0-11.37,12.66,41.33,41.33,0,0,0-3.88,18.21,35.33,35.33,0,0,0,4.62,18.11A33.56,33.56,0,0,0,469.22,142a37,37,0,0,0,18.67,4.63,35,35,0,0,0,11.73-2.13,36.26,36.26,0,0,0,9.71-4.9,10.5,10.5,0,0,1,6-2.12,8.09,8.09,0,0,1,5.64,1.94,8.75,8.75,0,0,1,3.32,6.1,6.55,6.55,0,0,1-3,5.73,50.87,50.87,0,0,1-15.62,8.13A55.72,55.72,0,0,1,487.89,162.53Z"/>
    <path class="a" d="M577.77,161.79A9,9,0,0,1,571,159a9.45,9.45,0,0,1-2.68-6.84s1.19-14.14,1.3-18.85c1.78-80.6-3.41-105.26-5.2-116.68-.42-2.68-1.8-7.73.18-9.44,2.91-2.51,38,10.47,38.34,41,.21,17.09-14.87,63.11-16.88,90.4-.26,3.57,1.3,3.92,1.3,3.92H654.3a9.61,9.61,0,1,1,0,19.22Z"/>
    <path class="a" d="M732.67,162.53q-15.34,0-27.26-6.56a47.89,47.89,0,0,1-18.67-18.11Q680,126.31,680,111.33q0-15.15,6.38-26.71A46.65,46.65,0,0,1,704,66.5a50.54,50.54,0,0,1,25.88-6.56q14.42,0,24.77,6.38a41.57,41.57,0,0,1,15.81,17.56q5.44,11.19,5.45,25.79a7.74,7.74,0,0,1-2.4,5.82,8.47,8.47,0,0,1-6.1,2.31h-74.5V103h73.94l-7.58,5.18a39.57,39.57,0,0,0-3.69-16.55,28.11,28.11,0,0,0-10-11.55q-6.47-4.26-15.71-4.25-10.53,0-18,4.62a29.79,29.79,0,0,0-11.37,12.66,41.33,41.33,0,0,0-3.88,18.21,35.33,35.33,0,0,0,4.62,18.11A33.61,33.61,0,0,0,714,142a37.07,37.07,0,0,0,18.67,4.63,35,35,0,0,0,11.74-2.13,36.26,36.26,0,0,0,9.71-4.9,10.5,10.5,0,0,1,6-2.12,8.05,8.05,0,0,1,5.63,1.94,8.73,8.73,0,0,1,3.33,6.1,6.55,6.55,0,0,1-3,5.73,51,51,0,0,1-15.62,8.13A55.73,55.73,0,0,1,732.67,162.53Z"/>
    <path class="a" d="M846,162.53a44.44,44.44,0,0,1-24.21-6.74,48,48,0,0,1-16.92-18.3,54.46,54.46,0,0,1-6.19-26.16,51.39,51.39,0,0,1,6.75-26.25,49.83,49.83,0,0,1,18.3-18.39,51,51,0,0,1,70.06,18.39,51.48,51.48,0,0,1,6.74,26.25h-7.21a54.46,54.46,0,0,1-6.19,26.16,48,48,0,0,1-16.91,18.3A44.5,44.5,0,0,1,846,162.53Zm3.7-16.63a31.56,31.56,0,0,0,16.82-4.53A32.25,32.25,0,0,0,878.17,129a36.5,36.5,0,0,0,4.25-17.65,36.92,36.92,0,0,0-4.25-17.84,32.22,32.22,0,0,0-11.65-12.38,33.32,33.32,0,0,0-33.55,0,32.6,32.6,0,0,0-11.83,12.38,36.2,36.2,0,0,0-4.35,17.84A35.79,35.79,0,0,0,821.14,129,32.62,32.62,0,0,0,833,141.37,31.66,31.66,0,0,0,849.7,145.9ZM891.11,162a9.16,9.16,0,0,1-9.43-9.43V124.27l3.51-19.6,15.34,6.66v41.22a9.16,9.16,0,0,1-9.42,9.43Z"/>
    <path class="a" d="M932.92,88.06a8.9,8.9,0,0,1-6.29-2.22,7.21,7.21,0,0,1-2.4-5.54,7.69,7.69,0,0,1,2.4-5.92,8.9,8.9,0,0,1,6.29-2.21h45.65a8.9,8.9,0,0,1,6.29,2.21,7.69,7.69,0,0,1,2.4,5.92,7.21,7.21,0,0,1-2.4,5.54,8.9,8.9,0,0,1-6.29,2.22Zm19.6,75a9.14,9.14,0,0,1-9.06-9.43V75.51c0-20.18,4.09-50.71,17.45-60.43,14.28-10.38,37.12-6.49,39-6.49,1.3,0,1.48,1.08,1.87,2.07.73,1.83,7.32,17-.57,27.79-10.39,14.28-38.84,11.69-38.84,37.81v77.4a9.29,9.29,0,0,1-2.59,6.85A9.77,9.77,0,0,1,952.52,163.09Z"/>
  </g>
</svg>
